<?xml version="1.0" encoding="utf-8"?>
<!-- Generator: Adobe Illustrator 21.0.0, SVG Export Plug-In . SVG Version: 6.00 Build 0)  -->
<svg version="1.1" id="Capa_1" xmlns="http://www.w3.org/2000/svg" xmlns:xlink="http://www.w3.org/1999/xlink" x="0px" y="0px"
	 viewBox="0 0 486 404" style="enable-background:new 0 0 486 404;" xml:space="preserve">
<g>
	<path d="M123.5,97.7c4.4-1,8.8-1.5,13.1-1.9c4.4-0.3,8.8-0.5,13.2-0.2c4.4,0.3,8.8,1.1,13.2,1.3c4.4,0.2,8.8,0,13.2-0.4
		c2.2-0.2,4.4-0.4,6.6-0.5c2.2-0.1,4.4-0.2,6.6-0.2c4.4-0.1,8.8-0.1,13.2,0.1c4.4,0.3,8.8,0.7,13.1,1.2c4.4,0.6,8.7,1.3,13.1,2.4
		l0,0.5c-2.2,0.3-4.4,0.5-6.6,0.7c-2.2,0.2-4.4,0.3-6.6,0.4c-2.2,0.1-4.4,0.1-6.6,0.2c-2.2,0-4.4,0-6.6,0c-2.2,0-4.4-0.1-6.6-0.3
		c-2.2-0.1-4.4-0.3-6.6-0.4c-2.2-0.1-4.4-0.3-6.6-0.5c-2.2-0.2-4.4-0.5-6.6-0.8c-4.4-0.5-8.8-0.9-13.1-0.7
		c-4.4,0.1-8.8,0.9-13.2,1.2c-2.2,0.2-4.4,0.2-6.6,0.2c-2.2,0-4.4-0.1-6.6-0.2c-2.2-0.1-4.4-0.3-6.6-0.5c-2.2-0.2-4.4-0.5-6.6-1
		L123.5,97.7z"/>
</g>
<g>
	<path d="M122.9,100.1c14.6,6,28.3,14.5,40.4,24.7c1.5,1.3,3,2.6,4.5,3.9c1.5,1.4,2.9,2.7,4.3,4.1c2.9,2.8,5.6,5.6,8.2,8.6
		c1.4,1.5,2.6,3,3.8,4.6l0.5,0.6c0.2,0.2,0.5,0.6,0.7,1.2c0.3,0.6,0.3,1.6,0,2.2c-0.3,0.7-0.6,1.1-0.9,1.4c-0.3,0.3-0.6,0.5-0.8,0.7
		l-0.6,0.4l-1.2,0.8l-9.8,6.6c-6.5,4.4-13,8.9-19.2,13.7c-6.2,4.8-12.3,9.7-18.3,14.9c-3,2.6-5.9,5.2-8.8,7.9
		c-2.9,2.7-5.8,5.3-8.6,8.1c-5.7,5.5-11.2,11-16.8,16.5l-1.1-3.7c10.7,2,21.7,2.7,32.6,2.7c5.5,0,11-0.1,16.5-0.3
		c5.5-0.2,11-0.4,16.6-0.7l16.6-0.7c5.5-0.2,11.1-0.4,16.6-0.5c11.1-0.3,22.2-0.5,33.3-0.5l0,0.5c-11,1.3-22,2.5-33.1,3.5
		c-5.5,0.5-11,1-16.6,1.4l-16.6,1.3c-5.5,0.4-11.1,0.8-16.6,1c-5.6,0.2-11.1,0.4-16.7,0.2c-11.2-0.2-22.4-1.2-33.4-3.7l-4.1-0.9
		l3-2.8c5.8-5.4,11.7-10.6,17.8-15.6c3-2.5,6-5.1,9.1-7.6l9.2-7.5l18.3-14.9c6.1-5,12.2-10,18.3-14.9c3.1-2.5,6.2-4.9,9.4-7.3
		l1.2-0.9l0.6-0.4c0.2-0.1,0.3-0.2,0.3-0.3c0,0,0,0-0.1,0.2c-0.1,0.2-0.1,0.6,0,0.8c0.1,0.2,0.1,0.1-0.1,0l-0.5-0.5
		c-1.3-1.4-2.6-2.9-3.9-4.4c-5.2-5.7-10.6-11.3-16.5-16.5c-2.9-2.6-5.9-5.1-8.9-7.5c-1.5-1.3-3.1-2.4-4.6-3.6l-4.7-3.5
		c-6.3-4.6-12.9-8.8-19.7-12.8L122.9,100.1z"/>
</g>
<g>
	<path d="M122.1,237.6c1.3,1.8,2,3.7,2.7,5.5c0.3,0.9,0.6,1.9,0.8,2.9c0.2,1,0.4,1.9,0.4,2.9c0.1,2-0.3,4.1-0.1,6.1
		c0.1,1,0.3,1.9,0.6,2.9c0.3,0.9,0.7,1.9,1.1,2.8c0.9,1.8,1.7,3.7,2.3,5.5c0.6,1.9,1.3,3.7,1.7,5.7c0.4,1.9,0.7,3.9,0.8,5.9
		c0.1,2,0.2,4-0.1,6.2l-0.5,0.1c-1.4-1.7-2.3-3.5-3.2-5.3c-0.9-1.8-1.6-3.7-2.2-5.6c-0.6-1.9-0.8-3.9-1.1-5.9c-0.1-1-0.3-2-0.3-3
		c-0.1-1,0-2,0-3c0-2-0.1-4-0.7-5.9c-0.5-1.9-1.7-3.7-2.4-5.6c-0.3-0.9-0.6-1.9-0.7-2.9c-0.1-1-0.2-2-0.3-3c-0.1-2,0.1-4,0.7-6.2
		L122.1,237.6z"/>
</g>
<g>
	<path d="M136.2,246.2c-0.1,1.9-0.6,3.7-1.2,5.4c-0.6,1.7-1.3,3.3-2.2,4.8c-0.9,1.5-2.2,2.8-3.4,4.1c-1.3,1.3-2.3,2.8-3,4.3
		l-0.6-1.2c2.4,0.1,5-0.1,7.5,0.2c1.2,0.2,2.5,0.5,3.7,0.8l1.8,0.6c0.6,0.2,1.2,0.5,1.8,0.7c2.3,1,4.4,2.5,6.2,4.3
		c1.8,1.8,3.4,3.8,4.4,6.2l-0.4,0.4c-2.3-1-4.4-2.1-6.5-3c-2-1-4.1-1.9-6-3c-0.5-0.2-1-0.5-1.5-0.8l-1.5-0.8l-1.5-0.7
		c-0.5-0.2-1-0.4-1.5-0.7c-2.1-1-4.2-2.2-6.5-2.6l-1.2-0.2l0.6-1c1-1.5,1.7-3.1,2.1-4.8c0.5-1.8,0.9-3.5,1.7-5.1
		c0.9-1.5,1.8-3,3-4.4c1.1-1.4,2.4-2.7,3.9-3.8L136.2,246.2z"/>
</g>
<g>
	<path d="M150.2,253.5c0.7-0.9,1.4-1.3,2.1-1.6c0.3-0.1,0.7-0.2,1-0.3c0.3-0.1,0.7,0,1,0.2c0.7,0.3,1.4,1.1,2,1.3
		c0.7,0.1,1.4-0.1,2-0.7c0.3-0.3,0.6-0.5,1-0.7c0.3-0.2,0.6-0.3,1-0.4c0.6-0.2,1.3-0.5,2-0.5c1.3,0.1,2.7,0.5,4.4,1.8l0.1,0.5
		c-1.1,1.8-2.4,2.6-3.8,3c-0.7,0.2-1.4,0-2.2-0.1c-0.4-0.1-0.7-0.1-1.1-0.3c-0.4-0.1-0.7-0.4-1.1-0.6c-0.7-0.4-1.4-0.7-2.1-0.5
		c-0.7,0.2-1.4,1-2.1,1.3c-0.7,0.3-1.4,0.1-2.1-0.2c-0.7-0.3-1.4-0.8-2-1.8L150.2,253.5z"/>
</g>
<g>
	<path d="M149,265.1c0.3-1.2,0.9-1.9,1.6-2.5c0.7-0.5,1.4-1,2.3-0.9c0.9,0.1,1.9,0.6,2.7,0.6c0.8,0,1.5-0.4,2.2-1
		c0.4-0.3,0.7-0.6,1.1-0.8c0.4-0.2,0.8-0.4,1.2-0.5c0.8-0.3,1.6-0.6,2.4-0.6c1.7,0.1,3.4,0.7,4.9,2.3l0,0.5c-1.6,1.5-3,2.2-4.5,2.5
		c-0.7,0.1-1.5,0-2.2-0.1c-0.7,0-1.5-0.3-2.4-0.6c-0.8-0.3-1.6-0.4-2.3-0.1c-0.7,0.3-1.2,1.3-1.8,1.8c-0.3,0.3-0.6,0.4-1,0.5
		c-0.4,0.1-0.7,0.1-1.1,0.1c-0.8,0-1.7-0.2-2.7-0.7L149,265.1z"/>
</g>
<g>
	<path d="M163.9,75.4c0.6,0.7,1,1.4,1.5,2.1c0.5,0.7,0.9,1.3,1.3,2c0.8,1.3,1.6,2.6,2.4,3.9l-3.9,0.1c0.5-1.1,0.9-2.5,1.4-4.1
		c0.5-1.6,0.9-3.4,1.1-5.2c0.1-0.9,0.3-1.8,0.5-2.7c0.2-0.9,0.5-1.8,0.9-2.8c0.4-0.9,1.1-1.9,2-2.6c1-0.7,2.2-1.2,3.5-1.2
		c1.3,0,2.6,0.4,3.7,1.1c1.1,0.7,1.9,1.5,2.6,2.4c1.3,1.8,1.9,3.9,2.1,5.9c0.1,1.9,0,3.6,0,5.2c0,1.6,0,3.1,0.7,4.8l-0.4,0.3
		c-1.8-0.8-3-2.7-3.7-4.5c-0.7-1.8-1.1-3.5-1.6-5.1c-0.8-2.7-2.1-5.4-3.6-5.7c-0.4-0.1-0.9-0.2-1.4,0c-0.5,0.1-1.2,0.4-1.7,0.9
		c-1.1,1-1.9,2.6-2,4.2c-0.1,1.7,0.4,3.3,0.7,5.2c0.4,1.8,0.4,4-0.7,6l-2.1,3.7l-1.8-3.6c-0.8-1.5-1.4-3.2-1.7-4.8
		c-0.2-0.8-0.3-1.7-0.3-2.6c0-0.9,0-1.7,0.2-2.6L163.9,75.4z"/>
</g>
<g>
	<path d="M244.1,94.1c-0.6,2.7-1.3,5.2-2,7.8c-0.6,2.6-1.2,5.1-1.9,7.7c-0.6,2.6-1.2,5.1-1.8,7.7c-0.5,2.6-1.1,5.1-1.8,7.7
		c-0.6,2.6-1.2,5.1-1.9,7.7c-0.5,2.6-1,5.2-1.3,7.8c-0.2,2.6-0.2,5.3-0.2,7.9c0.1,2.6,0.4,5.3,0.7,7.9c0.4,2.6,0.9,5.2,1.3,7.8
		c0.5,2.6,1,5.2,1.4,7.7c0.6,2.6,1.2,5.1,1.8,7.7c0.7,2.5,1.4,5,2,7.6c0.8,2.5,1.5,5,2.2,7.5c0.8,2.5,1.6,5,2.4,7.5
		c0.9,2.5,1.8,4.9,2.7,7.5c1,2.4,2,4.9,2.8,7.5l-0.4,0.2c-1.6-2.1-3.2-4.4-4.7-6.6c-1.4-2.3-2.7-4.7-4-7.1c-1.2-2.4-2.3-4.9-3.4-7.4
		c-1-2.5-1.8-5.1-2.7-7.7c-0.7-2.6-1.4-5.3-2-7.9c-0.5-2.7-0.9-5.4-1.3-8c-0.3-2.7-0.6-5.4-0.8-8.1c-0.1-2.7,0-5.4,0-8.1
		c0.2-2.7,0.3-5.4,0.3-8.1c0.2-2.7,0.3-5.4,0.3-8c0.2-2.7,0.2-5.4,0.2-8.1c0.1-2.7,0.3-5.4,0.5-8.1c0.4-2.7,0.9-5.3,1.5-8
		c0.7-2.6,1.6-5.2,2.4-7.8c1-2.5,2-5,3.2-7.5c1.3-2.4,2.6-4.8,4-7L244.1,94.1z"/>
</g>
<g>
	<path d="M253.4,110.5l1.5,6.1c0.5,2,1.1,4,1.6,6c0.6,2,1.2,3.9,1.9,5.8l2.1,5.7l-3.8,0c1.3-2.5,2.4-5.4,3-8.5
		c0.7-3.1,0.9-6.2,1.3-9.4c0.4-3.2,1-6.5,2.5-9.6c0.7-1.6,1.8-3.1,3.1-4.3c0.7-0.6,1.4-1.2,2.2-1.7c0.4-0.3,0.8-0.5,1.2-0.7
		c0.4-0.2,1-0.5,1.8-0.6c0.4-0.1,0.9-0.1,1.4,0.1c0.5,0.1,1,0.3,1.4,0.6c0.7,0.5,1.1,1,1.4,1.4c0.6,0.7,1,1.4,1.5,2.2
		c0.9,1.5,1.6,3.1,2.2,4.7c1.1,3.2,1.7,6.3,2.4,9.3c1.3,6.2,2.4,12.4,2.8,18.8l-0.5,0.1c-2.8-5.8-5-11.7-7-17.7
		c-1-3-1.8-6.1-2.8-8.8c-0.5-1.4-1-2.7-1.6-4c-0.3-0.6-0.7-1.2-1-1.8c-0.2-0.3-0.3-0.4-0.2-0.3c0,0,0.2,0.1,0.3,0.1
		c0.1,0,0.2,0,0.2,0c0,0-0.2,0-0.5,0.1c-0.3,0.1-0.6,0.2-0.9,0.4c-0.6,0.3-1.1,0.6-1.7,1c-1.1,0.8-2,1.8-2.9,2.9
		c-1.8,2.3-3.1,5.1-3.7,8.1c-0.7,3-0.8,6.2-0.9,9.4c-0.1,3.2-0.1,6.6-1.2,9.9l-1.5,4.4l-2.3-4.4c-1-1.9-1.9-3.9-2.5-6
		c-0.6-2.1-1.1-4.2-1.5-6.4c-0.3-2.1-0.5-4.3-0.5-6.5c0-2.2,0.2-4.3,0.6-6.4L253.4,110.5z"/>
</g>
<g>
	<path d="M269.2,162c1.1,1.6,1.7,3.2,2.1,4.8c0.2,0.8,0.4,1.6,0.5,2.4c0.2,0.8,0.2,1.6,0.2,2.5c-0.1,1.7-0.7,3.4-0.6,5.1
		c0.1,1.7,0.6,3.3,1.4,4.8c0.8,1.5,1.4,3.1,1.9,4.7c0.5,1.6,1,3.2,1.3,4.8c0.3,1.6,0.4,3.3,0.5,5c0,0.8,0,1.7-0.1,2.6
		c-0.1,0.9-0.1,1.8-0.4,2.7l-0.5,0.1c-1.3-1.4-2.2-2.9-2.9-4.4c-0.8-1.5-1.4-3.1-1.8-4.8c-0.4-1.6-0.6-3.3-0.7-5
		c-0.1-0.8-0.2-1.7-0.1-2.6c0-0.9,0.1-1.7,0.2-2.6c0.2-1.7,0.2-3.4-0.3-5.1c-0.4-1.6-1.4-3.2-2-4.8c-0.5-1.6-0.5-3.3-0.4-5
		c0.1-1.7,0.4-3.4,1.2-5.2L269.2,162z"/>
</g>
<g>
	<path d="M278.4,176.7c0.3,1.3,0.3,2.5,0.2,3.7c-0.1,1.2-0.3,2.4-0.7,3.5c-0.4,1.1-0.8,2.2-1.5,3.2c-0.7,1-1.7,1.8-2.5,2.7l-1.9-0.9
		c1.4-1.8,2-3.9,2.3-6.2c0.1-1.1,0.3-2.3,0.6-3.3l1-3.2c0.7-2.1,1.7-4.1,2.9-6c1.2-1.9,2.6-3.7,4.5-5.2l0.5,0.2
		c0.1,2.5-0.2,4.7-0.8,6.9c-0.5,2.2-1.3,4.2-2.4,6.2l-1.7,2.9c-0.6,0.9-1.3,1.8-2,2.7c-1.5,1.8-2.6,3.7-2.9,5.9l-1.9-0.9
		c0.3-1.1,0.4-2.3,0.6-3.4c0.2-1.1,0.7-2.1,1.2-3c0.5-1,1.1-1.9,1.7-2.9c0.6-0.9,1.4-1.9,2.3-2.8L278.4,176.7z"/>
</g>
<g>
	<path d="M274.3,186.8c1.3-0.3,2.4,0,3.3,0.3c0.9,0.4,1.8,0.9,2.4,1.8c0.5,0.9,0.7,2.2,1.3,2.9c0.6,0.8,1.4,1.3,2.4,1.7
		c0.5,0.2,1,0.4,1.4,0.7c0.4,0.3,0.8,0.6,1.2,0.9c0.8,0.7,1.5,1.4,2,2.2c1,1.8,1.5,3.8,0.9,6.3l-0.4,0.2c-2.3-0.9-3.7-2.1-4.9-3.4
		c-0.6-0.7-0.9-1.5-1.3-2.3c-0.5-0.8-0.8-1.7-1-2.7c-0.1-0.5-0.3-1-0.6-1.4c-0.3-0.4-0.6-0.8-0.9-1c-0.8-0.5-2-0.6-2.9-0.9
		c-0.5-0.2-0.8-0.4-1.1-0.8c-0.3-0.3-0.6-0.7-0.9-1.1c-0.3-0.4-0.5-0.8-0.7-1.3c-0.2-0.5-0.4-1-0.5-1.7L274.3,186.8z"/>
</g>
<g>
	<path d="M290.8,89.5c2.2,2,4.2,4.2,6.2,6.4c1,1.1,1.9,2.3,2.9,3.4c0.9,1.2,1.8,2.3,2.7,3.5c0.9,1.2,1.7,2.4,2.6,3.6
		c0.8,1.2,1.6,2.5,2.5,3.7c0.8,1.3,1.6,2.5,2.3,3.8c0.7,1.3,1.4,2.6,2.1,4c2.6,5.4,4.4,11.1,6.4,16.6c2,5.6,4.1,11.1,5.8,16.8
		l1.2,4.3c0.4,1.5,0.7,2.9,1,4.4c0.3,1.5,0.5,3,0.7,4.5c0.2,1.5,0.3,3,0.4,4.5c0.4,6,0.2,12.1-0.9,18.1c-1.1,6-3,11.8-5.8,17.2
		c-2.8,5.4-6.3,10.4-10.7,14.4l-0.4-0.3c3-5.1,5.6-10.2,7.5-15.6c1.9-5.4,3.3-10.9,4.1-16.5c0.9-5.6,1.4-11.3,1.4-17l-0.1-4.3
		c-0.1-1.4-0.2-2.9-0.3-4.3c-0.1-1.4-0.3-2.9-0.4-4.3l-0.5-4.3c-0.8-5.8-2.4-11.4-4.7-16.8c-2.3-5.4-5.5-10.3-8.6-15.2
		c-0.8-1.2-1.5-2.5-2.3-3.7c-0.8-1.2-1.5-2.5-2.2-3.7l-4.5-7.5l-2.3-3.7c-0.8-1.2-1.5-2.5-2.2-3.8c-0.8-1.2-1.5-2.5-2.2-3.8
		c-0.7-1.3-1.5-2.6-2.2-3.9L290.8,89.5z"/>
</g>
<g>
	<path d="M179.4,244c0.2,3.4,0.7,6.5,1.6,9.5c0.4,1.5,1,2.9,1.6,4.3c0.6,1.4,1.3,2.7,2.1,4c0.7,1.3,1.5,2.5,2.5,3.5
		c1,0.9,2.4,1.5,3.9,1.2c1.5-0.3,2.8-1.2,3.9-2.3c1.1-1.2,1.9-2.5,2.7-4c1.5-2.9,1.9-5.5,1.2-8.1c-0.7-2.6-2.4-4.8-4.6-6.5
		c-1.1-0.9-2.3-1.6-3.6-2.3c-1.3-0.6-2.7-1.2-4.1-1.5c-1.4-0.3-2.7-0.3-4,0.1c-1.3,0.5-2.6,1.3-3.3,2.8l-0.5-0.1
		c-0.2-1.8,0.9-3.8,2.5-4.9c0.8-0.6,1.7-1.1,2.7-1.4c1-0.3,2-0.5,2.9-0.5c2,0,3.8,0.3,5.6,0.9c1.8,0.6,3.5,1.4,5,2.6
		c3.1,2.2,5.5,5.9,6,9.9c0.3,2,0.2,4-0.5,5.9c-0.7,1.9-1.9,3.4-3.1,4.7c-1.2,1.3-2.4,2.5-3.7,3.6c-1.3,1.1-2.8,2.1-4.6,2.7
		c-1.8,0.5-3.9,0.5-5.7-0.4c-1.8-0.8-3.3-2-4.5-3.4c-1.2-1.4-2.1-3-2.8-4.7c-0.7-1.7-1.1-3.5-1.3-5.2c-0.4-3.6,0.1-7.3,1.8-10.3
		L179.4,244z"/>
</g>
<g>
	<path d="M339.2,151.1c1.2-0.8,2.3-1.1,3.3-1.2c0.5-0.1,1.1-0.1,1.6-0.1c0.5,0,1,0.1,1.5,0.3c1,0.4,1.9,1.3,3,1.6
		c1,0.3,2.1,0.1,3.1-0.3c0.5-0.2,1.1-0.4,1.6-0.6c0.5-0.2,1-0.2,1.6-0.3c1-0.2,2.1-0.3,3.1-0.2c1,0.1,2,0.3,3.1,0.7
		c0.5,0.2,1,0.4,1.6,0.7c0.5,0.3,1.1,0.6,1.6,1l0,0.5c-1,0.9-2.1,1.4-3.1,1.8c-1.1,0.4-2.1,0.6-3.2,0.7c-1.1,0.1-2.1-0.2-3.2-0.4
		c-0.5-0.1-1.1-0.2-1.6-0.4c-0.5-0.2-1-0.5-1.6-0.7c-1-0.5-2.1-0.9-3.1-0.8c-1.1,0.1-2.2,0.8-3.3,1c-0.5,0.1-1.1,0.1-1.6,0
		c-0.5-0.1-1-0.3-1.5-0.5c-1-0.4-2-1-2.9-2.1L339.2,151.1z"/>
</g>
<g>
	<path d="M339.7,166c1-0.9,1.9-1.3,2.8-1.6c0.5-0.1,0.9-0.2,1.4-0.2c0.5,0,0.9,0,1.4,0.2c0.9,0.4,1.8,1.2,2.7,1.4
		c0.9,0.2,1.9,0,2.8-0.4c0.5-0.2,0.9-0.4,1.4-0.6c0.5-0.2,0.9-0.2,1.4-0.3c0.9-0.1,1.9-0.3,2.8-0.2c1.8,0.3,3.7,1,5.4,2.7l0,0.5
		c-1.9,1.5-3.8,2-5.6,2.2c-0.9,0-1.8-0.2-2.8-0.4c-0.5-0.1-0.9-0.2-1.4-0.4c-0.5-0.2-0.9-0.5-1.4-0.7c-0.9-0.5-1.8-0.8-2.7-0.7
		c-0.9,0.1-1.9,0.9-2.8,1.2c-0.5,0.1-0.9,0.2-1.4,0.1c-0.5-0.1-0.9-0.2-1.4-0.3c-0.9-0.3-1.8-0.8-2.7-1.8L339.7,166z"/>
</g>
<g>
	<path d="M395.3,160.6c-4.1-4.8-7-10.8-8.3-17.2c-0.7-3.2-1-6.5-0.6-9.9c0.2-1.7,0.7-3.4,1.4-5.1c0.4-0.8,0.8-1.6,1.4-2.4
		c0.6-0.8,1.2-1.5,1.9-2.1c1.4-1.3,3.1-2.2,4.9-2.7c1.8-0.5,3.8-0.7,5.8-0.2c1.9,0.5,3.8,1.7,4.9,3.1c1.2,1.4,2,2.9,2.6,4.4
		c0.7,1.4,1.3,3,1.9,4.4c0.5,1.5,1.1,3,1.5,4.6c0.8,3.1,1.5,6.2,1.9,9.4c0.9,6.3,0.9,12.7,0.3,19c-0.7,6.3-2.3,12.7-5,18.5
		c-1.3,2.9-2.9,5.8-4.6,8.5c-1.7,2.7-3.6,5.4-5.7,7.8c-2.1,2.5-4.2,4.9-6.6,7.1c-2.4,2.2-4.8,4.3-7.4,6.2l-4.2,3.1l0-5.2
		c0-2.6,0.9-5.1,2.4-7c1.4-2,3.4-3.4,5.7-4.3c1.1-0.4,2.3-0.7,3.6-0.8c1.2-0.1,2.5,0,3.6,0.3c2.3,0.6,4.2,1.8,5.9,3
		c1.7,1.2,3.1,2.4,4.7,3.4c1.6,1,3.2,1.8,4.9,2.2c0.9,0.2,1.7,0.3,2.6,0.2c0.9-0.1,1.7-0.3,2.5-0.7c1.6-0.7,3.1-2.1,3.5-3.9l0.5,0
		c0,1-0.3,2.1-0.9,3c-0.6,0.9-1.4,1.7-2.3,2.3c-0.9,0.6-1.9,1-3,1.3c-1.1,0.3-2.2,0.3-3.3,0.2c-4.4-0.4-8.1-3-11.3-4.8
		c-1.6-0.9-3.2-1.7-4.8-2c-0.8-0.1-1.5-0.1-2.2,0c-0.7,0.1-1.4,0.3-2.1,0.7c-1.4,0.7-2.6,1.7-3.4,3c-0.9,1.2-1.2,2.6-1.2,4l-4.2-2.1
		c4.8-3.7,9.3-7.8,13.3-12.3c4-4.5,7.6-9.5,10.4-14.9c2.9-5.3,5.2-11,6.5-17.1c0.6-3,1-6.1,1.1-9.2c0-3.1-0.2-6.2-0.7-9.2
		c-0.2-0.8-0.3-1.5-0.4-2.3l-0.6-2.2c-0.2-0.7-0.5-1.5-0.7-2.2c-0.2-0.7-0.5-1.4-0.8-2.2c-1.1-2.9-2.6-5.6-4.2-8.1
		c-0.8-1.3-1.7-2.5-2.6-3.4c-0.9-0.9-1.9-1.4-3-1.6c-2.2-0.4-4.9,0.5-6.8,2.1c-0.5,0.4-0.9,0.8-1.3,1.3c-0.4,0.5-0.7,1.1-1,1.7
		c-0.6,1.2-1,2.5-1.3,3.9c-0.5,2.8-0.5,5.8-0.1,8.8c0.7,6,2.5,11.9,5.4,17.5L395.3,160.6z"/>
</g>
<g>
	<path d="M414.2,102.5c0.7,1.3,1.3,2.6,1.9,3.9c0.5,1.3,1,2.7,1.5,4c0.4,1.4,0.8,2.7,1.2,4.1c0.3,1.4,0.7,2.7,0.9,4.1l-4.3-0.2
		c0.7-2,1.5-4.2,2.2-6.5c0.7-2.3,1.1-4.7,1.8-7.1c0.7-2.4,1.4-4.8,3-7.1c0.8-1.1,1.8-2.1,3.1-2.9c1.2-0.7,2.8-1.3,4.6-1.2
		c1.8,0.1,3.6,1,4.7,2.2c1.2,1.2,2,2.6,2.5,4.1c0.9,2.9,0.6,5.5,0.6,7.7c0,4.4,0.9,8.8,2.4,13.4l-0.4,0.3c-3.8-3.3-6.1-8.2-6.9-13.3
		c-0.4-2.6-0.4-4.9-0.8-6.5c-0.2-0.8-0.6-1.5-1-2.1c-0.5-0.6-0.9-0.9-1.5-1c-0.6-0.1-1.5,0-2.4,0.3c-0.9,0.3-1.8,0.7-2.6,1.4
		c-1.7,1.3-3.1,3.2-3.8,5.4c-0.8,2.2-0.9,4.6-0.8,7c0.1,2.4,0.2,4.9-0.4,7.5l-2.1,8l-2.2-8.1c-0.4-1.4-0.6-2.8-0.8-4.1
		c-0.2-1.4-0.4-2.8-0.6-4.2c-0.1-1.4-0.2-2.8-0.3-4.3c0-1.4,0-2.9,0.1-4.4L414.2,102.5z"/>
</g>
<g>
	<path d="M396.6,202.5c0.6-0.7,1.5-1.2,2.5-1.5c1-0.2,2-0.3,2.9-0.2c0.9,0.1,1.8,0.4,2.7,0.7c0.8,0.3,1.6,0.7,2.3,1.3
		c1.3,1.1,2.3,2.6,3.7,3.3c1.4,0.8,3,1.1,4.6,0.9c0.8,0,1.6-0.2,2.4-0.2c0.4-0.1,0.8-0.1,1.1-0.1l1.1-0.1c1.5-0.1,2.9-0.4,4.4-0.5
		l4.5-0.3c1.5-0.1,3.1-0.3,4.9-0.3l0.2,0.4c-2.1,3-5.4,4.8-8.9,5.5c-1.8,0.3-3.6,0.2-5.3,0c-1.8-0.2-3.5-0.8-5-1.7
		c-1.6-0.8-3-1.6-4.6-2.1c-1.6-0.5-3.4-0.7-5-1.1c-0.8-0.2-1.5-0.5-2.1-0.9l-1.9-1c-0.6-0.3-1.2-0.6-1.9-0.9
		c-0.7-0.3-1.4-0.5-2.3-0.7L396.6,202.5z"/>
</g>
</svg>
